<svg xmlns="http://www.w3.org/2000/svg" width="48" height="48" viewBox="0 0 48 48">
  <path fill="#D81B60" fill-rule="evenodd" d="M24,48 C10.745166,48 0,37.254834 0,24 C0,10.745166 10.745166,0 24,0 C37.254834,0 48,10.745166 48,24 C48,37.254834 37.254834,48 24,48 Z M12.1117635,32.5902424 C12.2575844,33.9776351 13.0117946,35.1576236 14.0778423,35.922277 L14.3727982,38.728594 C14.4639362,39.5957145 15.2576993,40.2295862 16.1367162,40.1371978 L17.7349288,39.9692188 C18.6139457,39.8768304 19.2585739,39.0917777 19.1674359,38.2246573 L19.0017304,36.6480747 L31.7874309,35.3042434 L31.9531365,36.880826 C32.0442745,37.7479465 32.8380376,38.3818181 33.7170545,38.2894297 L35.3152671,38.1214508 C36.194284,38.0290624 36.8389122,37.2440097 36.7477742,36.3768893 L36.4528184,33.5705722 C37.33659,32.6009846 37.8289856,31.2899726 37.6831647,29.9025799 L36.0261096,14.1367536 C35.4461403,8.61871439 29.6416865,8.43178757 22.577587,9.17425435 C15.5134874,9.91672114 9.87473914,11.3063769 10.4547084,16.8244161 L12.1117635,32.5902424 Z M17.8025761,33.6447877 C16.4792407,33.7838759 15.2988483,32.8290408 15.1599064,31.5070972 C15.0209646,30.1851536 15.9770412,29.0057666 17.3003766,28.8666784 C18.6237119,28.7275903 19.8041043,29.6824254 19.9430462,31.0043689 C20.0819881,32.3263125 19.1259114,33.5056996 17.8025761,33.6447877 Z M32.3359624,32.1172673 C31.012627,32.2563554 29.8322346,31.3015203 29.6932927,29.9795767 C29.5543508,28.6576332 30.5104275,27.4782461 31.8337628,27.339158 C33.1570982,27.2000698 34.3374906,28.1549049 34.4764325,29.4768485 C34.6153744,30.7987921 33.6592977,31.9781791 32.3359624,32.1172673 Z M17.5846495,17.8612209 L17.8453059,19.6618177 L17.2167365,19.727883 C16.9548281,18.7985707 16.7901832,18.6587824 16.175739,18.7233631 L16.54615,22.2475892 L17.2018456,22.2357976 L17.2708802,22.8926173 L14.6082885,23.172467 L14.5392539,22.5156473 L15.1830726,22.3908545 L14.8126615,18.8666283 C14.1911547,18.9319513 14.0468913,19.1898943 13.9962011,20.0663749 L13.3746943,20.1316979 L13.2552896,18.316255 L17.5846495,17.8612209 Z M20.1626547,20.3393915 L19.9437148,20.362403 L20.1018261,21.866732 L20.467956,21.885375 L20.5377329,22.5492573 L18.3836467,22.7756609 L18.3138699,22.1117786 L18.7458112,22.0092549 L18.3768848,18.4991539 L17.9330665,18.4886763 L17.864032,17.8318566 L19.6932395,17.6395992 C20.7455636,17.5289955 21.8777816,17.5670877 21.987643,18.6123492 C22.0722659,19.417483 21.6302501,19.7638458 20.8247345,19.9127743 L20.8269614,19.933962 C21.7060507,19.9415344 22.0621062,20.2040165 22.1482138,21.0232755 L22.1890406,21.4117172 C22.2142791,21.6518449 22.2503129,21.7908695 22.4551277,21.7693426 C22.6740676,21.7463311 22.6770795,21.5032342 22.6819791,21.0742834 L23.0826796,21.0821523 C23.1483418,21.9107008 22.8906739,22.3804998 22.0361021,22.4703189 C21.4710959,22.5297035 20.9046477,22.3036157 20.8192824,21.4914193 L20.7643517,20.9687885 C20.7161018,20.509721 20.5299087,20.3007916 20.1626547,20.3393915 Z M19.7328996,18.356631 L19.8828456,19.7832717 L19.960534,19.7751063 C20.4761021,19.7209179 20.662741,19.4585211 20.6100372,18.9570781 C20.5551065,18.4344473 20.312031,18.2957619 19.8459009,18.3447541 L19.7328996,18.356631 Z M25.4908031,21.2646247 C26.1334976,21.1970748 26.2926498,20.8090362 26.2280692,20.194592 L25.9660349,17.7015021 L25.5794595,17.6921486 L25.5096827,17.0282664 L27.0846375,16.862732 L27.1544143,17.5266142 L26.8135442,17.6124253 L27.0881977,20.225579 C27.1995437,21.2849656 26.6730948,21.9829513 25.4230186,22.1143396 C24.2647559,22.236078 23.3548502,22.0032454 23.2056465,20.5836674 L22.9354468,18.0128892 L22.5637389,18.0091137 L22.4939621,17.3452314 L24.6480482,17.1188278 L24.7178251,17.7827101 L24.2985243,17.869624 L24.5531355,20.292088 C24.6177162,20.9065323 24.7421699,21.3433093 25.4908031,21.2646247 Z M27.2651438,16.84376 L31.206062,16.4295528 L31.4459124,18.168071 L30.8032179,18.2356209 C30.536092,17.3925441 30.2194215,17.2330314 29.4566631,17.3132005 L29.0964717,17.3510582 L29.2575522,18.8836375 L29.328178,18.8762144 C29.7166198,18.8353875 29.892845,18.6097882 29.9118912,18.0436792 L30.4133342,17.9909754 L30.633057,20.0814983 L30.1174888,20.1356867 C29.9395464,19.4617513 29.7901295,19.3989091 29.3805,19.4419629 L29.3169368,19.4486437 L29.4683674,20.8894095 L30.0746249,20.882814 L30.1436594,21.5396337 L27.7847586,21.7875642 L27.715724,21.1307445 L28.1130948,21.038995 L27.7426837,17.5147688 L27.3341783,17.5005797 L27.2651438,16.84376 Z M32.3538409,20.586134 L31.9841721,17.0689704 L31.576409,17.0618439 L31.5066322,16.3979616 L33.6677809,16.1708157 L33.7368154,16.8276354 L33.3394446,16.9193849 L33.7098557,20.4436111 L34.1183611,20.4578002 L34.1873956,21.1146199 L32.0262469,21.3417658 L31.9572124,20.6849461 L32.3538409,20.586134 Z"/>
</svg>
