<?xml version="1.0" encoding="UTF-8" standalone="no"?>
<!DOCTYPE svg PUBLIC "-//W3C//DTD SVG 1.1//EN" "http://www.w3.org/Graphics/SVG/1.1/DTD/svg11.dtd">
<svg width="100%" height="100%" viewBox="0 0 335 384" version="1.1" xmlns="http://www.w3.org/2000/svg" xmlns:xlink="http://www.w3.org/1999/xlink" xml:space="preserve" xmlns:serif="http://www.serif.com/" style="fill-rule:evenodd;clip-rule:evenodd;stroke-linejoin:round;stroke-miterlimit:1.41421;">
    <g transform="matrix(0.994522,-0.104528,0.104528,0.994522,-113.406,-40.7834)">
        <path d="M99,343.895L99,149.684C99,81.711 169.481,72 256.5,72C343.519,72 414,81.711 414,149.684L414,343.895C414,360.985 406.322,376.328 394.313,387.009L394.313,421.579C394.313,432.261 385.453,441 374.625,441L354.938,441C344.109,441 335.25,432.261 335.25,421.579L335.25,402.158L177.75,402.158L177.75,421.579C177.75,432.261 168.891,441 158.063,441L138.375,441C127.547,441 118.688,432.261 118.688,421.579L118.688,387.009C106.678,376.328 99,360.985 99,343.895ZM166.986,364.031C183.287,364.031 196.446,350.886 196.446,334.601C196.446,318.317 183.287,305.172 166.986,305.172C150.684,305.172 137.525,318.317 137.525,334.601C137.525,350.886 150.684,364.031 166.986,364.031ZM346.014,364.031C362.316,364.031 375.475,350.886 375.475,334.601C375.475,318.317 362.316,305.172 346.014,305.172C329.713,305.172 316.554,318.317 316.554,334.601C316.554,350.886 329.713,364.031 346.014,364.031ZM184.542,171.447L131.211,171.447L130.341,193.719L137.997,193.719C139.737,183.105 141.825,180.147 149.481,180.147L149.481,223.56L141.477,224.256L141.477,232.347L174.276,232.347L174.276,224.256L166.272,223.56L166.272,180.147C173.841,180.147 175.668,182.061 177.669,193.719L185.412,193.719L184.542,171.447ZM212.779,204.942C217.303,204.942 219.304,207.726 219.304,213.381L219.304,219.819C219.304,229.824 225.916,233.304 232.876,233.304C243.403,233.304 247.144,227.91 247.405,217.731L242.533,217.122C241.924,222.342 241.576,225.3 238.879,225.3C236.356,225.3 236.095,223.56 236.095,220.602L236.095,215.817C236.095,205.725 232.093,202.071 221.392,200.853L221.392,200.592C231.397,199.809 237.226,196.155 237.226,186.237C237.226,173.361 223.48,171.447 210.517,171.447L187.984,171.447L187.984,179.538L193.378,180.234L193.378,223.473L187.984,224.169L187.984,232.347L214.519,232.347L214.519,224.169L210.082,223.473L210.082,204.942L212.779,204.942ZM210.082,180.234L211.474,180.234C217.216,180.234 220,182.235 220,188.673C220,194.85 217.39,197.808 211.039,197.808L210.082,197.808L210.082,180.234ZM276.512,223.038C267.29,223.038 266.333,217.557 266.333,209.988L266.333,180.147L271.553,179.625L271.553,171.447L245.018,171.447L245.018,179.625L249.542,180.147L249.542,211.815C249.542,229.302 260.33,233.304 274.598,233.304C289.997,233.304 297.305,225.474 297.305,212.424L297.305,180.234L301.568,179.625L301.568,171.447L282.167,171.447L282.167,179.625L286.865,180.234L286.865,210.945C286.865,218.514 284.429,223.038 276.512,223.038ZM303.791,171.447L303.791,179.538L308.75,180.234L308.75,223.647L303.791,224.256L303.791,232.347L332.849,232.347L332.849,224.256L325.454,223.56L325.454,205.812L326.237,205.812C331.283,205.812 333.023,206.769 334.328,215.208L340.679,215.208L340.679,189.456L334.502,189.456C333.545,196.329 331.109,198.852 326.324,198.852L325.454,198.852L325.454,179.973L329.891,179.973C339.287,179.973 342.941,182.322 345.116,192.936L353.033,192.936L352.337,171.447L303.791,171.447ZM360.999,223.56L356.04,224.256L356.04,232.347L382.662,232.347L382.662,224.256L377.703,223.56L377.703,180.147L382.662,179.538L382.662,171.447L356.04,171.447L356.04,179.625L360.999,180.234L360.999,223.56Z" style="fill:rgb(38,50,56);fill-rule:nonzero;"/>
    </g>
</svg>
