<?xml version="1.0" encoding="UTF-8" standalone="no"?>
<!DOCTYPE svg PUBLIC "-//W3C//DTD SVG 1.1//EN" "http://www.w3.org/Graphics/SVG/1.1/DTD/svg11.dtd">
<svg width="100%" height="100%" viewBox="0 0 24 24" version="1.1" xmlns="http://www.w3.org/2000/svg" xmlns:xlink="http://www.w3.org/1999/xlink" xml:space="preserve" xmlns:serif="http://www.serif.com/" style="fill-rule:evenodd;clip-rule:evenodd;stroke-linejoin:round;stroke-miterlimit:1.41421;">
    <g transform="matrix(1,0,0,1,4,0)">
        <path d="M8.25,0C3.689,0 0,3.756 0,8.4C0,14.7 8.25,24 8.25,24C8.25,24 16.5,14.7 16.5,8.4C16.5,3.756 12.811,0 8.25,0Z" style="fill:rgb(234,67,53);"/>
        <path d="M8.25,11.4C6.624,11.4 5.304,10.056 5.304,8.4C5.304,6.744 6.624,5.4 8.25,5.4C9.876,5.4 11.196,6.744 11.196,8.4C11.196,10.056 9.876,11.4 8.25,11.4Z" style="fill:rgb(151,9,9);"/>
    </g>
</svg>
