<svg xmlns="http://www.w3.org/2000/svg" viewBox="0 0 23.17 22.94"><g id="Layer_1_copy" data-name="Layer 1 copy"><polygon points="11.59 0 13.79 4.21 17.91 1.86 17.49 6.59 22.23 6.84 19.32 10.59 23.17 13.37 18.7 14.95 20.43 19.37 15.81 18.28 14.88 22.94 11.59 19.52 8.29 22.94 7.36 18.28 2.74 19.37 4.47 14.95 0 13.37 3.85 10.59 0.94 6.84 5.68 6.59 5.26 1.86 9.38 4.21 11.59 0" fill="#fbb925"/><path d="M24.86,18.36a6.36,6.36,0,1,0-6.36,6.37A6.36,6.36,0,0,0,24.86,18.36Z" transform="translate(-6.91 -7.03)" fill="#fbb925" stroke="#fff" stroke-width="1.3"/></g></svg>