<svg id="Layer_1_copy" data-name="Layer 1 copy" xmlns="http://www.w3.org/2000/svg" viewBox="0 0 29.12 20.75"><polygon points="9.02 0 10.74 3.27 13.95 1.45 13.62 5.13 17.31 5.33 15.05 8.25 18.04 10.41 14.56 11.64 15.91 15.08 12.31 14.23 11.59 17.86 9.02 15.2 6.45 17.86 5.73 14.23 2.13 15.08 3.49 11.64 0 10.41 3 8.25 0.73 5.33 4.42 5.13 4.1 1.45 7.31 3.27 9.02 0" fill="#fbb925"/><path d="M17.53,13.35a5,5,0,1,0-5,5A5,5,0,0,0,17.53,13.35Z" transform="translate(-3.55 -4.53)" fill="#fbb925" stroke="#fff" stroke-width="1.01"/><path d="M27.5,14.17a7.86,7.86,0,0,0-14.85,0,5.2,5.2,0,1,0,3.22,9.41,7.82,7.82,0,0,0,8.21.11,5.1,5.1,0,0,0,2.88.88,5.2,5.2,0,0,0,.54-10.38Z" transform="translate(-3.55 -4.53)" fill="#fff" stroke="#1d1d1b"/></svg>