<svg id="Layer_1_copy" data-name="Layer 1 copy" xmlns="http://www.w3.org/2000/svg" viewBox="0 0 25.55 25.81"><path d="M24.27,31.78a2.42,2.42,0,0,1-4.83,0c0-1.34,2.6-5.26,2.6-5.24S24.27,30.44,24.27,31.78Z" transform="translate(-5.72 -8.38)" fill="#009edb"/><path d="M17.56,31.78a2.42,2.42,0,0,1-4.83,0c0-1.34,2.59-5.26,2.59-5.24S17.56,30.44,17.56,31.78Z" transform="translate(-5.72 -8.38)" fill="#009edb"/><path d="M26.1,14.17a7.86,7.86,0,0,0-14.85,0,5.2,5.2,0,1,0,3.23,9.41,7.79,7.79,0,0,0,4.19,1.22,7.69,7.69,0,0,0,4-1.11,5.14,5.14,0,0,0,2.89.88,5.2,5.2,0,0,0,.53-10.38Z" transform="translate(-5.72 -8.38)" fill="#fff" stroke="#1d1d1b"/></svg>