<svg id="Layer_1_copy" data-name="Layer 1 copy" xmlns="http://www.w3.org/2000/svg" viewBox="0 0 29.14 29.66"><polygon points="9.02 0 10.74 3.27 13.95 1.45 13.62 5.13 17.31 5.33 15.05 8.25 18.04 10.41 14.56 11.64 15.91 15.08 12.31 14.23 11.59 17.86 9.02 15.2 6.45 17.86 5.73 14.23 2.13 15.08 3.49 11.64 0 10.41 3 8.25 0.73 5.33 4.42 5.13 4.1 1.45 7.31 3.27 9.02 0" fill="#fbb925"/><path d="M17.53,13.35a5,5,0,1,0-5,5A5,5,0,0,0,17.53,13.35Z" transform="translate(-3.55 -4.53)" fill="#fbb925" stroke="#fff" stroke-width="1.01"/><path d="M27.52,14.17a7.87,7.87,0,0,0-14.86,0,5.2,5.2,0,1,0,3.23,9.41,7.82,7.82,0,0,0,8.21.11,5.11,5.11,0,0,0,2.89.88,5.2,5.2,0,0,0,.53-10.38Z" transform="translate(-3.55 -4.53)" fill="#fff" stroke="#1d1d1b"/><path d="M23.9,30.73l-.21-.37h-.93l.28-.5-.21-.36h-.42l-.5.86H20.53l.69-1.19h1l.21-.37-.21-.37h-.54l.47-.81-.21-.36h-.42l-.47.8-.28-.48h-.42L20.1,28l.49.84L19.9,30l-.69-1.2.43-.72-.21-.37H19l-.22.36-.47-.8H17.9l-.21.36.47.81-.58,0-.22.37.22.36,1,0,.69,1.19H17.89l-.48-.78H17l-.21.37.27.41h-.94l-.21.37.21.36h.94l-.25.44.21.37h.43l.45-.81h1.38l-.69,1.2h-.86l-.21.36.21.37h.44l-.47.81.21.36h.42l.47-.81.29.46h.42l.21-.36-.5-.82.69-1.2.69,1.2-.43.76.21.36h.42l.22-.4.47.81h.42l.21-.36L21.64,33h.58l.21-.36-.21-.37h-1l-.69-1.2h1.38l.47.82h.42l.21-.37-.25-.45h.93Z" transform="translate(-3.55 -4.53)" fill="#009edb" fill-rule="evenodd"/></svg>