<svg id="Layer_1_copy" data-name="Layer 1 copy" xmlns="http://www.w3.org/2000/svg" viewBox="0 0 29.12 29.66"><polygon points="9.02 0 10.74 3.27 13.95 1.45 13.62 5.13 17.31 5.33 15.05 8.25 18.04 10.41 14.56 11.64 15.91 15.08 12.31 14.23 11.59 17.86 9.02 15.2 6.45 17.86 5.73 14.23 2.13 15.08 3.49 11.64 0 10.41 3 8.25 0.73 5.33 4.42 5.13 4.1 1.45 7.31 3.27 9.02 0" fill="#fbb925"/><path d="M17.53,13.35a5,5,0,1,0-5,5A5,5,0,0,0,17.53,13.35Z" transform="translate(-3.55 -4.53)" fill="#fbb925" stroke="#fff" stroke-width="1.01"/><path d="M27.5,14.17a7.86,7.86,0,0,0-14.85,0,5.2,5.2,0,1,0,3.22,9.41,7.82,7.82,0,0,0,8.21.11,5.11,5.11,0,0,0,2.89.88,5.2,5.2,0,0,0,.53-10.38Z" transform="translate(-3.55 -4.53)" fill="#fff" stroke="#1d1d1b"/><path d="M19.74,30.73l-.22-.37h-.93l.28-.5-.21-.36h-.42l-.49.86H16.37l.69-1.19h1l.21-.37L18,28.43h-.54l.47-.81-.21-.36h-.42l-.47.8-.28-.48h-.42l-.21.37.49.84L15.74,30l-.69-1.2.42-.72-.21-.37h-.42l-.21.36-.47-.8h-.42l-.21.36.46.81-.58,0-.21.37.21.36,1,0,.68,1.19H13.73l-.49-.78h-.42l-.21.37.27.41H12l-.21.37.21.36h.93l-.24.44.21.37h.42l.46-.81H15.1l-.68,1.2h-.86l-.21.36.21.37H14l-.46.81.21.36h.42l.47-.81.29.46h.42l.21-.36-.5-.82.69-1.2.69,1.2-.43.76.21.36h.42l.22-.4.47.81h.42l.21-.36L17.48,33h.58l.21-.36-.21-.37h-1l-.69-1.2h1.38l.46.82h.42l.22-.37-.26-.45h.93Z" transform="translate(-3.55 -4.53)" fill="#009edb" fill-rule="evenodd"/><path d="M28,30.73l-.21-.37H26.9l.29-.5L27,29.5h-.42l-.49.86H24.68l.69-1.19h1l.21-.37-.21-.37h-.54l.47-.81-.21-.36h-.43l-.46.8-.28-.48h-.42l-.21.37.49.84L24.05,30l-.69-1.2.42-.72-.21-.37h-.42l-.21.36-.47-.8h-.42l-.21.36.46.81-.58,0-.21.37.21.36,1,0,.7,1.19H22l-.49-.78h-.42l-.21.37.27.41h-.93l-.21.37.21.36h.93l-.24.44.21.37h.42l.46-.81h1.38l-.7,1.2h-.85l-.21.36.21.37h.43l-.46.81.21.36h.42l.47-.81.28.46h.42l.22-.36-.5-.82.69-1.2.69,1.2-.43.76.21.36h.42l.22-.4.46.81h.43l.21-.36L25.79,33h.58l.21-.36-.21-.37h-1l-.69-1.2h1.38l.46.82H27l.21-.37-.26-.45h.93Z" transform="translate(-3.55 -4.53)" fill="#009edb" fill-rule="evenodd"/></svg>