<svg xmlns="http://www.w3.org/2000/svg" viewBox="0 0 25.55 25.81"><g id="Layer_1_copy" data-name="Layer 1 copy"><path d="M26.1,14.17a7.86,7.86,0,0,0-14.85,0,5.2,5.2,0,1,0,3.23,9.41,7.79,7.79,0,0,0,4.19,1.22,7.69,7.69,0,0,0,4-1.11,5.14,5.14,0,0,0,2.89.88,5.2,5.2,0,0,0,.53-10.38Z" transform="translate(-5.72 -8.38)" fill="#fff" stroke="#1d1d1b"/><path d="M22.49,30.73l-.21-.37h-.94l.28-.5-.21-.36H21l-.49.86H19.12l.69-1.19h1L21,28.8l-.21-.37h-.54l.47-.81-.21-.36h-.42l-.47.8-.28-.48H18.9l-.21.37.49.84L18.49,30l-.69-1.2.42-.72L18,27.71h-.42l-.21.36-.47-.8h-.42l-.21.36.47.81-.59,0-.21.37.21.36,1,0,.69,1.19H16.48L16,29.58h-.43l-.21.37.27.41H14.7l-.21.37.21.36h.93l-.24.44.21.37H16l.46-.81h1.38l-.69,1.2h-.86l-.21.36.21.37h.44l-.47.81.21.36h.42l.47-.81.29.46h.42l.21-.36-.5-.82.69-1.2.69,1.2-.43.76.21.36h.42l.22-.4.47.81h.42l.21-.36L20.23,33h.58l.21-.36-.21-.37h-1l-.69-1.2H20.5l.46.82h.42l.22-.37-.26-.45h.94Z" transform="translate(-5.72 -8.38)" fill="#009edb" fill-rule="evenodd"/></g></svg>