<svg xmlns="http://www.w3.org/2000/svg" viewBox="0 0 25.55 25.81"><g id="Layer_1_copy" data-name="Layer 1 copy"><path d="M26.1,14.17a7.86,7.86,0,0,0-14.85,0,5.2,5.2,0,1,0,3.23,9.41,7.79,7.79,0,0,0,4.19,1.22,7.69,7.69,0,0,0,4-1.11,5.14,5.14,0,0,0,2.89.88,5.2,5.2,0,0,0,.53-10.38Z" transform="translate(-5.72 -8.38)" fill="#fff" stroke="#1d1d1b"/><path d="M18.34,30.73l-.21-.37H17.2l.28-.5-.21-.36h-.42l-.49.86H15l.69-1.19h1l.22-.37-.22-.37h-.53l.47-.81-.22-.36h-.42l-.46.8-.28-.48h-.42l-.21.37.49.84L14.35,30l-.69-1.2.42-.72-.21-.37h-.42l-.22.36-.46-.8h-.42l-.21.36.46.81-.58,0-.21.37.21.36,1,0,.69,1.19H12.33l-.48-.78h-.42l-.21.37.27.41h-.93l-.21.37.21.36h.93l-.24.44.21.37h.42l.45-.81h1.38L13,32.29h-.86l-.21.36.21.37h.44l-.46.81.21.36h.42l.46-.81.29.46h.42l.21-.36-.49-.82.69-1.2.69,1.2-.44.76.22.36h.42l.22-.4.46.81h.42l.22-.36L16.09,33h.58l.21-.36-.21-.37h-1L15,31.09h1.38l.46.82h.42l.21-.37-.25-.45h.93Z" transform="translate(-5.72 -8.38)" fill="#009edb" fill-rule="evenodd"/><path d="M26.65,30.73l-.21-.37h-.93l.28-.5-.21-.36h-.42l-.49.86H23.29L24,29.17h1l.2-.37-.2-.37H24.4l.47-.81-.22-.36h-.42l-.46.8-.28-.48h-.42l-.21.37.49.84-.7,1.2L22,28.8l.43-.72-.21-.37h-.42l-.22.36-.46-.8h-.42l-.21.36.46.81-.58,0-.21.37.21.36,1,0L22,30.36H20.64l-.48-.78h-.42l-.21.37.27.41h-.93l-.21.37.21.36h.93l-.24.44.21.37h.42l.45-.81H22l-.69,1.2h-.86l-.21.36.21.37h.44l-.46.81.21.36h.42l.46-.81.29.46h.42l.21-.36-.5-.82.69-1.2.7,1.2-.44.76.21.36h.43l.22-.4.46.81h.42l.22-.36L24.4,33H25l.21-.36L25,32.3H24l-.69-1.2h1.38l.46.82h.42l.21-.37-.25-.45h.93Z" transform="translate(-5.72 -8.38)" fill="#009edb" fill-rule="evenodd"/></g></svg>