<svg id="Layer_1_copy" data-name="Layer 1 copy" xmlns="http://www.w3.org/2000/svg" viewBox="0 0 25.55 25.81"><path d="M26.11,14.17a7.87,7.87,0,0,0-14.86,0,5.2,5.2,0,1,0,3.23,9.41,7.82,7.82,0,0,0,8.21.11,5.1,5.1,0,0,0,2.88.88,5.2,5.2,0,0,0,.54-10.38Z" transform="translate(-5.72 -8.38)" fill="#fff" stroke="#1d1d1b"/><path d="M22.49,30.73l-.21-.37h-.94l.28-.5-.21-.36H21l-.49.86H19.12l.69-1.19h1L21,28.8l-.21-.37h-.54l.47-.81-.21-.36h-.42l-.47.8-.28-.48H18.9l-.21.37.49.84L18.49,30l-.69-1.2.43-.72L18,27.71h-.42l-.21.36-.47-.8h-.42l-.21.36.47.81-.59,0-.21.37.21.36,1,0,.69,1.19H16.48L16,29.58h-.43l-.21.37.27.41H14.7l-.21.37.21.36h.93l-.24.44.21.37H16l.46-.81h1.38l-.69,1.2h-.86l-.21.36.21.37h.44l-.47.81.21.36h.42l.47-.81.29.46h.42l.21-.36-.5-.82.69-1.2.69,1.2-.43.76.21.36h.42l.22-.4.47.81h.42l.21-.36L20.23,33h.58l.21-.36-.21-.37h-1l-.69-1.2H20.5l.46.82h.42l.22-.37-.26-.45h.94Z" transform="translate(-5.72 -8.38)" fill="#009edb" fill-rule="evenodd"/><path d="M30.79,30.73l-.21-.37h-.93l.29-.5-.22-.36H29.3l-.49.86H27.43l.69-1.19h1l.21-.37-.21-.37h-.54l.47-.81-.21-.36h-.42l-.47.8-.28-.48h-.42L27,28l.49.84L26.8,30l-.69-1.2.42-.72-.21-.37H25.9l-.21.36-.47-.8H24.8l-.21.36.46.81-.58,0-.21.37.21.36,1,0,.7,1.19H24.79l-.49-.78h-.42l-.21.37.27.41H23l-.21.37.21.36h.93l-.24.44.21.37h.42l.46-.81h1.38l-.7,1.2h-.85l-.21.36.21.37h.43l-.46.81.21.36h.42l.47-.81.28.46h.42l.22-.36-.5-.82.69-1.2.69,1.2-.43.76.21.36h.42l.22-.4.47.81h.42l.21-.36L28.54,33h.58l.21-.36-.21-.37h-1l-.69-1.2h1.38l.46.82h.43l.21-.37-.26-.45h.93Z" transform="translate(-5.72 -8.38)" fill="#009edb" fill-rule="evenodd"/><path d="M14.2,30.73,14,30.36h-.93l.28-.5-.21-.36h-.42l-.5.86H10.83l.69-1.19h1l.21-.37-.21-.37H12l.46-.81-.21-.36h-.42l-.47.8L11,27.59h-.43L10.4,28l.49.84L10.2,30l-.69-1.2.43-.72-.21-.37H9.31l-.22.36-.46-.8H8.2L8,27.63l.47.81-.58,0-.22.37.22.36,1,0,.69,1.19H8.19l-.48-.78H7.29L7.08,30l.27.41H6.42l-.22.37.22.36h.93l-.24.44.2.37h.43l.45-.81H9.57l-.69,1.2H8l-.21.36L8,33h.44L8,33.83l.21.36h.43l.46-.81.29.46H9.8l.21-.36-.5-.82.69-1.2.69,1.2-.43.76.21.36h.42l.22-.4.47.81h.42l.21-.36L12,33h.57l.22-.36-.22-.37h-1l-.69-1.2h1.38l.47.82h.42l.21-.37-.25-.45H14Z" transform="translate(-5.72 -8.38)" fill="#009edb" fill-rule="evenodd"/></svg>