<svg xmlns="http://www.w3.org/2000/svg" viewBox="0 0 25.55 26.32"><g id="Layer_1_copy" data-name="Layer 1 copy"><path d="M26.1,14.17a7.86,7.86,0,0,0-14.85,0,5.2,5.2,0,0,0,.18,10.4,5.13,5.13,0,0,0,3.05-1,7.77,7.77,0,0,0,8.2.12,5.14,5.14,0,0,0,2.89.88,5.2,5.2,0,0,0,.53-10.38Z" transform="translate(-5.72 -8.38)" fill="#fff" stroke="#1d1d1b"/><polygon points="21.86 11.42 12.67 13.37 7.8 22.16 10.96 19.75 7.31 26.32 17.99 16.6 14.5 17.04 21.86 11.42" fill="#fbb925"/><polygon points="18.24 4.17 9.04 6.11 4.17 14.9 7.33 12.49 3.69 19.07 14.36 9.35 10.87 9.79 18.24 4.17" fill="#fbb925"/></g></svg>