<svg id="Layer_1_copy" data-name="Layer 1 copy" xmlns="http://www.w3.org/2000/svg" viewBox="0 0 29.12 29.66"><polygon points="9.02 0 10.74 3.27 13.95 1.45 13.62 5.13 17.31 5.33 15.05 8.25 18.04 10.41 14.56 11.64 15.91 15.08 12.31 14.23 11.59 17.86 9.02 15.2 6.45 17.86 5.73 14.23 2.13 15.08 3.49 11.64 0 10.41 3 8.25 0.73 5.33 4.42 5.13 4.1 1.45 7.31 3.27 9.02 0" fill="#fbb925"/><path d="M17.53,13.35a5,5,0,1,0-5,5A5,5,0,0,0,17.53,13.35Z" transform="translate(-3.55 -4.53)" fill="#fbb925" stroke="#fff" stroke-width="1.01"/><path d="M19.1,31.78a2.42,2.42,0,0,1-4.83,0c0-1.34,2.6-5.26,2.6-5.24S19.1,30.44,19.1,31.78Z" transform="translate(-3.55 -4.53)" fill="#009edb"/><path d="M25.52,31.78a2.42,2.42,0,0,1-4.83,0c0-1.34,2.59-5.26,2.59-5.24S25.52,30.44,25.52,31.78Z" transform="translate(-3.55 -4.53)" fill="#009edb"/><path d="M27.5,14.17a7.86,7.86,0,0,0-14.85,0,5.2,5.2,0,1,0,3.22,9.41,7.82,7.82,0,0,0,8.21.11,5.1,5.1,0,0,0,2.88.88,5.2,5.2,0,0,0,.54-10.38Z" transform="translate(-3.55 -4.53)" fill="#fff" stroke="#1d1d1b"/><path d="M19,19l-.21-.37h-.94l.29-.5-.21-.36h-.43l-.49.86H15.59l.69-1.19h1l.21-.36-.21-.37H16.7l.47-.81L17,15.54h-.42l-.47.8-.28-.48h-.42l-.21.37.49.84L15,18.27l-.69-1.2.43-.73L14.48,16h-.42l-.21.36-.47-.8H13l-.21.36.47.81-.59,0-.21.37.21.36,1,0,.69,1.19H13l-.48-.78H12l-.21.37.27.41h-.93L11,19l.21.36h.93l-.24.44.21.36h.42l.46-.8h1.38l-.69,1.2h-.86l-.21.37.21.36h.44l-.47.8.21.37h.42l.47-.81.29.46h.42l.21-.37-.5-.82L15,19.73l.69,1.19-.43.77.21.36h.42l.22-.4.47.81H17l.21-.37-.47-.8h.58l.21-.37-.21-.36h-1l-.69-1.2H17l.47.82h.42l.21-.37-.26-.45h.94Z" transform="translate(-3.55 -4.53)" fill="#009edb" fill-rule="evenodd"/><path d="M28.82,19l-.21-.37h-.93l.28-.5-.21-.36h-.42l-.49.86H25.46l.69-1.19h1l.21-.36-.21-.37h-.54L27,15.9l-.22-.36H26.4l-.46.8-.28-.48h-.42l-.21.37.49.84-.69,1.2-.69-1.2.42-.73L24.35,16h-.42l-.22.36-.46-.8h-.42l-.21.36.46.81-.58,0-.21.37.21.36,1,0,.69,1.19H22.81l-.48-.78h-.42l-.21.37.27.41H21l-.21.37.21.36H22l-.24.44.21.36h.42l.45-.8h1.38l-.69,1.2h-.86l-.21.37.21.36h.44l-.46.8.21.37h.42l.46-.81.29.46h.42l.21-.37-.49-.82.69-1.19.69,1.19-.44.77.22.36h.42l.22-.4.46.81h.42l.22-.37-.47-.8h.58l.21-.37-.21-.36h-1l-.69-1.2h1.38l.46.82h.42l.21-.37-.25-.45h.93Z" transform="translate(-3.55 -4.53)" fill="#009edb" fill-rule="evenodd"/></svg>