<svg id="Layer_1_copy" data-name="Layer 1 copy" xmlns="http://www.w3.org/2000/svg" viewBox="0 0 29.12 29.66"><polygon points="9.02 0 10.74 3.27 13.95 1.45 13.62 5.13 17.31 5.33 15.05 8.25 18.04 10.41 14.56 11.64 15.91 15.08 12.31 14.23 11.59 17.86 9.02 15.2 6.45 17.86 5.73 14.23 2.13 15.08 3.49 11.64 0 10.41 3 8.25 0.73 5.33 4.42 5.13 4.1 1.45 7.31 3.27 9.02 0" fill="#fbb925"/><path d="M17.53,13.35a5,5,0,1,0-5,5A5,5,0,0,0,17.53,13.35Z" transform="translate(-3.55 -4.53)" fill="#fbb925" stroke="#fff" stroke-width="1.01"/><path d="M22.46,31.78a2.42,2.42,0,0,1-4.83,0c0-1.34,2.59-5.26,2.59-5.24S22.46,30.44,22.46,31.78Z" transform="translate(-3.55 -4.53)" fill="#009edb"/><path d="M28.88,31.78a2.42,2.42,0,0,1-4.83,0c0-1.34,2.59-5.26,2.59-5.24S28.88,30.44,28.88,31.78Z" transform="translate(-3.55 -4.53)" fill="#009edb"/><path d="M15.74,31.78a2.42,2.42,0,0,1-4.83,0c0-1.34,2.6-5.26,2.6-5.24S15.74,30.44,15.74,31.78Z" transform="translate(-3.55 -4.53)" fill="#009edb"/><path d="M27.5,14.17a7.86,7.86,0,0,0-14.85,0,5.2,5.2,0,1,0,3.22,9.41,7.82,7.82,0,0,0,8.21.11,5.11,5.11,0,0,0,2.89.88,5.2,5.2,0,0,0,.53-10.38Z" transform="translate(-3.55 -4.53)" fill="#fff" stroke="#1d1d1b"/><path d="M17.72,19l-.21-.36h-.93l.28-.5-.21-.37h-.42l-.5.87H14.35l.69-1.2h1l.21-.37L16,16.72h-.53l.46-.8-.21-.37H15.3l-.47.81-.27-.48h-.43l-.21.36.49.85-.69,1.19L13,17.09l.43-.73L13.25,16h-.42l-.22.37-.46-.81h-.43l-.21.37.47.8-.58,0-.22.36.22.37,1,0,.69,1.2H11.71l-.48-.78h-.42l-.21.36.27.42H9.94L9.72,19l.22.37h.93l-.24.43.21.37h.42l.45-.8h1.38l-.69,1.19h-.86l-.21.36.21.37H12l-.47.81.21.37h.43l.46-.81.29.46h.42l.21-.37-.5-.82.69-1.2.69,1.2L14,21.7l.21.37h.42l.22-.4.47.81h.42l.21-.37-.46-.81.57,0,.22-.37L16,20.58H15l-.69-1.19h1.38l.47.81h.42l.21-.36-.25-.45h.93Z" transform="translate(-3.55 -4.53)" fill="#009edb" fill-rule="evenodd"/><path d="M30.06,19.4,29.85,19h-.93l.28-.51L29,18.17h-.42l-.49.87H26.7l.68-1.2h1l.21-.36-.21-.37h-.53l.46-.81-.21-.36h-.42l-.47.8-.27-.48h-.43l-.21.37.49.84-.69,1.2-.69-1.2.43-.72-.21-.37h-.42l-.22.36-.46-.8h-.43l-.21.36.47.81-.58,0-.21.37.21.36,1,0,.69,1.2H24.05l-.48-.79h-.42l-.21.37.27.42h-.93l-.22.36.22.36h.93L23,20.2l.21.37h.42l.45-.81h1.38L24.74,21h-.86l-.21.36.21.37h.44l-.47.81.21.36h.43l.46-.8.29.45h.42l.21-.36-.5-.82.69-1.2.69,1.2-.43.76.21.37H27l.22-.4.47.8h.42l.21-.36-.46-.81h.58l.21-.36L28.39,21h-1l-.68-1.2h1.38l.46.82H29l.21-.36-.25-.46h.93Z" transform="translate(-3.55 -4.53)" fill="#009edb" fill-rule="evenodd"/><path d="M24.16,14.26l-.22-.36H23l.28-.5L23.08,13h-.42l-.49.87H20.79l.69-1.2h1l.21-.36L22.44,12H21.9l.47-.8-.21-.37h-.43l-.46.81L21,11.13h-.42l-.21.36.49.85-.69,1.19-.69-1.19.42-.73-.21-.36h-.42l-.21.36-.47-.81h-.42l-.21.37.46.8-.58,0-.21.36.21.37,1,0,.69,1.2H18.15l-.49-.78h-.42l-.21.36.27.42h-.93l-.21.36.21.37h.93l-.24.43.21.37h.42l.46-.8h1.38l-.69,1.19H18l-.21.37.21.36h.43l-.46.81.21.37h.42l.47-.81.28.46h.42L20,17l-.5-.82.69-1.2.69,1.2-.43.76.21.37h.42l.22-.4.46.81h.43l.21-.37-.47-.81.58,0,.21-.37-.21-.36-1,0-.69-1.19h1.38l.46.81h.42l.22-.36L23,14.63h.93Z" transform="translate(-3.55 -4.53)" fill="#009edb" fill-rule="evenodd"/></svg>