<svg id="Layer_1_copy" data-name="Layer 1 copy" xmlns="http://www.w3.org/2000/svg" viewBox="0 0 25.55 25.81"><path d="M20.91,31.78a2.41,2.41,0,1,1-4.82,0c0-1.34,2.59-5.26,2.59-5.24S20.91,30.44,20.91,31.78Z" transform="translate(-5.72 -8.38)" fill="#009edb"/><path d="M26.1,14.17a7.86,7.86,0,0,0-14.85,0,5.2,5.2,0,1,0,3.23,9.41,7.79,7.79,0,0,0,4.19,1.22,7.69,7.69,0,0,0,4-1.11,5.14,5.14,0,0,0,2.89.88,5.2,5.2,0,0,0,.53-10.38Z" transform="translate(-5.72 -8.38)" fill="#fff" stroke="#1d1d1b"/><path d="M22.5,18l-.21-.37h-.93l.28-.5-.21-.36H21l-.49.86H19.13l.69-1.19h1l.21-.36-.21-.37h-.54l.47-.81-.21-.36h-.42l-.47.8-.28-.48h-.42l-.21.37.49.84-.69,1.2-.69-1.2.43-.73L18,15H17.6l-.21.36-.47-.8H16.5l-.21.36.47.81-.59,0L16,16.1l.21.36,1,0,.69,1.19H16.49L16,16.85h-.43l-.21.37.27.41h-.93L14.5,18l.21.36h.93l-.24.44.21.36H16l.45-.8h1.38l-.69,1.2h-.86l-.21.37.21.36h.44l-.47.8.21.37h.42l.47-.81.29.46h.42l.21-.37-.5-.82.69-1.19.69,1.19-.43.77.21.36h.42l.22-.4.47.81h.42l.21-.37-.47-.8h.58l.21-.37-.21-.36h-1l-.69-1.2h1.38l.46.82h.43l.21-.37-.25-.45h.93Z" transform="translate(-5.72 -8.38)" fill="#009edb" fill-rule="evenodd"/></svg>