<svg id="Layer_1_copy" data-name="Layer 1 copy" xmlns="http://www.w3.org/2000/svg" viewBox="0 0 25.55 25.81"><path d="M17.71,31.78a2.42,2.42,0,0,1-4.83,0c0-1.34,2.59-5.26,2.59-5.24S17.71,30.44,17.71,31.78Z" transform="translate(-5.72 -8.38)" fill="#009edb"/><path d="M24.12,31.78a2.42,2.42,0,0,1-4.83,0c0-1.34,2.6-5.26,2.6-5.24S24.12,30.44,24.12,31.78Z" transform="translate(-5.72 -8.38)" fill="#009edb"/><path d="M26.1,14.17a7.86,7.86,0,0,0-14.85,0,5.2,5.2,0,1,0,3.23,9.41,7.79,7.79,0,0,0,4.19,1.22,7.69,7.69,0,0,0,4-1.11,5.14,5.14,0,0,0,2.89.88,5.2,5.2,0,0,0,.53-10.38Z" transform="translate(-5.72 -8.38)" fill="#fff" stroke="#1d1d1b"/><path d="M17.57,19l-.22-.37h-.93l.28-.5-.21-.36h-.42l-.49.86H14.2l.69-1.19h1l.21-.36-.21-.37h-.54l.47-.81-.21-.36h-.43l-.46.8-.28-.48H14l-.21.37.49.84-.69,1.2-.69-1.2.42-.73L13.09,16h-.42l-.21.36-.47-.8h-.42l-.21.36.46.81-.58,0L11,17.1l.21.36,1,0,.68,1.19H11.55l-.48-.78h-.42l-.21.37.27.41H9.78L9.57,19l.21.36h.93l-.24.44.21.36h.42l.45-.8h1.38l-.68,1.2h-.86l-.22.37.22.36h.43l-.46.8.21.37H12l.47-.81.29.46h.41l.22-.37-.5-.82.69-1.19.69,1.19-.43.77.21.36h.42l.22-.4.46.81h.43l.21-.37-.47-.8h.58l.21-.37-.21-.36h-1l-.69-1.2h1.38l.46.82h.42l.22-.37-.26-.45h.93Z" transform="translate(-5.72 -8.38)" fill="#009edb" fill-rule="evenodd"/><path d="M27.43,19l-.21-.37h-.93l.28-.5-.21-.36h-.42l-.49.86H24.07l.69-1.19h.95l.21-.36-.21-.37h-.53l.46-.81-.21-.36H25l-.47.8-.27-.48h-.42l-.22.37.49.84-.69,1.2-.69-1.2.43-.73L23,16h-.42l-.22.36-.46-.8h-.42l-.22.36.47.81-.58,0-.21.37.21.36,1,0,.69,1.19H21.42l-.48-.78h-.42l-.21.37.27.41h-.93l-.21.37.21.36h.93l-.24.44.21.36H21l.45-.8H22.8l-.69,1.2h-.86l-.21.37.21.36h.44l-.47.8.22.37h.42l.46-.81.29.46H23l.21-.37-.5-.82.69-1.19.69,1.19-.43.77.21.36h.42l.22-.4.47.81h.42l.21-.37-.46-.8h.58l.21-.37-.21-.36h-1l-.69-1.2h1.38l.46.82h.42l.21-.37-.25-.45h.93Z" transform="translate(-5.72 -8.38)" fill="#009edb" fill-rule="evenodd"/></svg>