<svg xmlns="http://www.w3.org/2000/svg" viewBox="0 0 25.55 25.81"><g id="Layer_1_copy" data-name="Layer 1 copy"><path d="M21.06,31.78a2.42,2.42,0,0,1-4.83,0c0-1.34,2.6-5.26,2.6-5.24S21.06,30.44,21.06,31.78Z" transform="translate(-5.72 -8.38)" fill="#009edb"/><path d="M27.48,31.78a2.42,2.42,0,0,1-4.83,0c0-1.34,2.6-5.26,2.6-5.24S27.48,30.44,27.48,31.78Z" transform="translate(-5.72 -8.38)" fill="#009edb"/><path d="M14.35,31.78a2.42,2.42,0,0,1-4.83,0c0-1.34,2.6-5.26,2.6-5.24S14.35,30.44,14.35,31.78Z" transform="translate(-5.72 -8.38)" fill="#009edb"/><path d="M26.1,14.17a7.86,7.86,0,0,0-14.85,0,5.2,5.2,0,1,0,3.23,9.41,7.79,7.79,0,0,0,4.19,1.22,7.69,7.69,0,0,0,4-1.11,5.14,5.14,0,0,0,2.89.88,5.2,5.2,0,0,0,.53-10.38Z" transform="translate(-5.72 -8.38)" fill="#fff" stroke="#1d1d1b"/><path d="M16.33,19l-.21-.36h-.93l.28-.5-.21-.37h-.42l-.5.87H13l.69-1.2h1l.21-.37-.21-.36h-.54l.47-.8-.21-.37h-.42l-.47.81-.28-.48h-.42l-.21.36.49.85-.69,1.19-.69-1.19.43-.73L11.86,16h-.43l-.21.37-.47-.81h-.42l-.21.37.47.8-.59,0-.21.36.21.37,1,0,.69,1.2H10.32l-.48-.78H9.41l-.21.36.27.42H8.54L8.33,19l.21.37h.93l-.24.43.21.37h.43l.45-.8H11.7L11,20.57h-.86l-.21.36.21.37h.44l-.47.81.21.37h.42l.47-.81.29.46h.42l.21-.37-.5-.82.69-1.2.69,1.2-.43.76.21.37h.42l.22-.4.47.81h.42l.21-.37-.47-.81.58,0,.21-.37-.21-.37h-1L13,19.38h1.38l.47.81h.42l.21-.36-.25-.45h.93Z" transform="translate(-5.72 -8.38)" fill="#009edb" fill-rule="evenodd"/><path d="M28.67,19.4,28.46,19h-.93l.28-.51-.21-.36h-.43l-.49.87H25.3l.69-1.2h1l.21-.37L27,17.11h-.53l.46-.81-.21-.36h-.42l-.47.81-.28-.49h-.42l-.21.37.49.84-.69,1.2L24,17.47l.43-.72-.21-.37h-.43l-.21.37-.47-.81h-.42l-.21.36.47.81-.59,0-.21.37.21.36,1,0L24,19H22.66l-.48-.79h-.43l-.21.37.27.42h-.93l-.21.36.21.36h.93l-.24.44.21.37h.43l.45-.81H24L23.35,21h-.86l-.21.36.21.37h.44l-.47.81.21.36h.42l.47-.8.29.45h.42l.21-.36-.5-.82.69-1.2.69,1.2-.43.76.21.37h.42l.22-.4.47.8h.42l.21-.36-.46-.81H27l.21-.36L27,21H26l-.69-1.2h1.38l.47.82h.42l.21-.36-.25-.46h.93Z" transform="translate(-5.72 -8.38)" fill="#009edb" fill-rule="evenodd"/><path d="M22.76,14.26l-.21-.36h-.93l.28-.5L21.69,13h-.42l-.49.87H19.4l.69-1.19H21l.21-.36L21,12h-.53l.46-.8-.21-.37h-.42l-.46.81-.28-.48h-.42l-.21.36.49.85-.7,1.2-.68-1.2.42-.73-.21-.36h-.42l-.22.36-.46-.81h-.42l-.22.37L17,12l-.58,0-.21.36.21.37,1,0,.69,1.19H16.75l-.48-.78h-.42l-.21.36.27.42H15l-.21.36.21.37h.93l-.24.44.21.36h.42l.45-.8h1.38l-.69,1.2h-.86l-.21.37.21.36H17l-.47.81.22.37h.42l.46-.81.29.46h.42l.21-.37-.49-.82L18.76,15l.7,1.19L19,17l.22.36h.42l.22-.4.46.81h.42l.21-.37-.46-.81.58,0,.21-.37-.21-.36h-1l-.69-1.2h1.38l.46.82h.42l.21-.37-.25-.45h.93Z" transform="translate(-5.72 -8.38)" fill="#009edb" fill-rule="evenodd"/></g></svg>