<svg xmlns="http://www.w3.org/2000/svg" viewBox="0 0 24.28 10.11"><g id="Layer_1_copy" data-name="Layer 1 copy"><path d="M30.48,15.27a1,1,0,0,1-1.05,1H7.24a1,1,0,0,1-1-1h0a1,1,0,0,1,1-1H29.43a1,1,0,0,1,1.05,1Z" transform="translate(-6.19 -14.22)" fill="#1d1d1b"/><path d="M30.48,19.28a1,1,0,0,1-1.05,1H7.24a1,1,0,0,1-1-1h0a1,1,0,0,1,1-1.05H29.43a1,1,0,0,1,1.05,1.05Z" transform="translate(-6.19 -14.22)" fill="#1d1d1b"/><path d="M30.48,23.29a1,1,0,0,1-1.05,1H7.24a1,1,0,0,1-1-1h0a1,1,0,0,1,1-1.05H29.43a1,1,0,0,1,1.05,1.05Z" transform="translate(-6.19 -14.22)" fill="#1d1d1b"/></g></svg>